<svg xmlns="http://www.w3.org/2000/svg" xmlns:xlink="http://www.w3.org/1999/xlink" version="1.1" x="0px" y="0px" viewBox="0 0 56 56" enable-background="new 0 0 56 56" xml:space="preserve"><path d="M37.4453125,13.5849609c-1.9033203,0-3.6923828,0.7412109-5.0380859,2.0869141l-2.4609375,2.4609375  c-0.390625,0.390625-0.390625,1.0234375,0,1.4140625s1.0234375,0.390625,1.4140625,0l2.4609375-2.4609375  c0.9677734-0.9677734,2.2548828-1.5009766,3.6240234-1.5009766c1.3681641,0,2.6552734,0.5332031,3.6240234,1.5009766  c1.9980469,1.9980469,1.9980469,5.2490234,0,7.2470703l-7.5957031,7.5947266  c-0.9677734,0.9677734-2.2548828,1.5009766-3.6240234,1.5009766c-1.3681641,0-2.6552734-0.5332031-3.6230469-1.5009766  c-0.7382812-0.7382812-1.2275391-1.6669922-1.4150391-2.6865234c-0.0996094-0.5410156-0.6123047-0.9072266-1.1650391-0.8017578  c-0.5429688,0.0996094-0.9023438,0.6210938-0.8017578,1.1650391c0.2617188,1.4189453,0.9423828,2.7119141,1.9677734,3.7373047  c1.3457031,1.3457031,3.1347656,2.0869141,5.0371094,2.0869141c1.9033203,0,3.6923828-0.7412109,5.0380859-2.0869141  l7.5957031-7.5947266c2.7783203-2.7773438,2.7783203-7.2978516,0-10.0751953  C41.1376953,14.3261719,39.3476562,13.5849609,37.4453125,13.5849609z"/><path d="M24.6132812,36.4804688l-2.4345703,2.4335938c-0.9677734,0.9677734-2.2548828,1.5009766-3.6240234,1.5009766  c-1.3681641,0-2.6552734-0.5332031-3.6240234-1.5009766c-1.9980469-1.9980469-1.9980469-5.2490234,0-7.2470703l7.5957031-7.5947266  c0.9677734-0.9677734,2.2548828-1.5009766,3.6240234-1.5009766c1.3681641,0,2.6552734,0.5332031,3.6230469,1.5009766  c0.9521484,0.9511719,1.4853516,2.2158203,1.5009766,3.5615234c0.0068359,0.5488281,0.453125,0.9882812,1,0.9882812  c0.0039062,0,0.0078125,0,0.0117188,0c0.5527344-0.0068359,0.9951172-0.4599609,0.9882812-1.0117188  c-0.0224609-1.8710938-0.7636719-3.6298828-2.0869141-4.9521484c-1.3457031-1.3457031-3.1347656-2.0869141-5.0371094-2.0869141  c-1.9033203,0-3.6923828,0.7412109-5.0380859,2.0869141l-7.5957031,7.5947266  c-1.3457031,1.3457031-2.0869141,3.1347656-2.0869141,5.0371094c0,1.9033203,0.7412109,3.6923828,2.0869141,5.0380859  s3.1357422,2.0869141,5.0380859,2.0869141c1.9033203,0,3.6923828-0.7412109,5.0380859-2.0869141l2.4345703-2.4335938  c0.390625-0.390625,0.390625-1.0234375,0-1.4140625S25.0039062,36.0898438,24.6132812,36.4804688z"/><path d="M52.9882812,41.7285156V14.2714844C52.9882812,8.0566406,47.9316406,3,41.7167969,3H14.2832031  C8.0683594,3,3.0117188,8.0566406,3.0117188,14.2714844v27.4570312C3.0117188,47.9433594,8.0683594,53,14.2832031,53h27.4335938  C47.9316406,53,52.9882812,47.9433594,52.9882812,41.7285156z M41.7167969,51H14.2832031  c-5.1123047,0-9.2714844-4.1591797-9.2714844-9.2714844V14.2714844C5.0117188,9.1591797,9.1708984,5,14.2832031,5h27.4335938  c5.1123047,0,9.2714844,4.1591797,9.2714844,9.2714844v27.4570312C50.9882812,46.8408203,46.8291016,51,41.7167969,51z"/></svg>